<svg width="23" height="24" viewBox="0 0 23 24" fill="none" xmlns="http://www.w3.org/2000/svg">
<path d="M2.91426 13.9704C3.56278 13.2359 4.37662 12.6989 5.27488 12.4129C6.17314 12.1268 7.12454 12.1016 8.03451 12.3398C10.222 12.9443 12.2635 14.0568 14.0187 15.601L9.21551 20.8294C8.83351 21.247 8.37949 21.5785 7.87951 21.8046C7.37952 22.0307 6.84342 22.1472 6.30199 22.1472C5.76056 22.1472 5.22446 22.0307 4.72448 21.8046C4.22449 21.5785 3.77047 21.247 3.38848 20.8294L2.91426 20.3132C2.15672 19.4634 1.73303 18.3259 1.73303 17.1418C1.73303 15.9577 2.15672 14.8202 2.91426 13.9704V13.9704Z" stroke="white" stroke-width="1.5"/>
<path d="M4.7241 12.0004L12.8352 3.17144C13.6158 2.34686 14.6609 1.88567 15.7487 1.88567C16.8365 1.88567 17.8815 2.34686 18.6622 3.17144L19.0559 3.59995C19.8427 4.44533 20.2923 5.59385 20.3074 6.79719C20.3225 8.00052 19.9018 9.16196 19.1364 10.0304L14.0967 15.5161C9.13368 11.3145 4.7241 12.0004 4.7241 12.0004Z" stroke="white" stroke-width="1.5"/>
<ellipse cx="15.9981" cy="19" rx="3.99952" ry="4" fill="white"/>
<path d="M14.4983 18.5L15.9981 20L17.4979 18.5" stroke="#1A4D9A" stroke-width="1.2" stroke-linecap="round" stroke-linejoin="round"/>
</svg>
