<svg width="24" height="24" viewBox="0 0 24 24" fill="none" xmlns="http://www.w3.org/2000/svg">
<path d="M3 22H21" stroke="white" stroke-width="1.5" stroke-linecap="round" stroke-linejoin="round"/>
<path d="M5.6 8.38H4C3.73478 8.38 3.48043 8.48536 3.29289 8.6729C3.10536 8.86043 3 9.11479 3 9.38V18C3 18.2652 3.10536 18.5196 3.29289 18.7071C3.48043 18.8946 3.73478 19 4 19H5.6C5.86522 19 6.11957 18.8946 6.30711 18.7071C6.49464 18.5196 6.6 18.2652 6.6 18V9.38C6.6 9.11479 6.49464 8.86043 6.30711 8.6729C6.11957 8.48536 5.86522 8.38 5.6 8.38V8.38Z" stroke="white" stroke-width="1.5" stroke-linecap="round" stroke-linejoin="round"/>
<path d="M12.8 5.19H11.2C10.9348 5.19 10.6804 5.29536 10.4929 5.4829C10.3054 5.67043 10.2 5.92479 10.2 6.19V18C10.2 18.2652 10.3054 18.5196 10.4929 18.7071C10.6804 18.8946 10.9348 19 11.2 19H12.8C13.0652 19 13.3196 18.8946 13.5071 18.7071C13.6947 18.5196 13.8 18.2652 13.8 18V6.19C13.8 5.92479 13.6947 5.67043 13.5071 5.4829C13.3196 5.29536 13.0652 5.19 12.8 5.19V5.19Z" stroke="white" stroke-width="1.5" stroke-linecap="round" stroke-linejoin="round"/>
<path d="M20 2H18.4C18.1348 2 17.8804 2.10536 17.6929 2.29289C17.5054 2.48043 17.4 2.73478 17.4 3V18C17.4 18.2652 17.5054 18.5196 17.6929 18.7071C17.8804 18.8946 18.1348 19 18.4 19H20C20.2652 19 20.5196 18.8946 20.7071 18.7071C20.8946 18.5196 21 18.2652 21 18V3C21 2.73478 20.8946 2.48043 20.7071 2.29289C20.5196 2.10536 20.2652 2 20 2V2Z" stroke="white" stroke-width="1.5" stroke-linecap="round" stroke-linejoin="round"/>
</svg>
