<svg id="Logo_Typography" data-name="Logo + Typography" xmlns="http://www.w3.org/2000/svg" xmlns:xlink="http://www.w3.org/1999/xlink" width="379.627" height="59.166" viewBox="0 0 379.627 59.166">
  <defs>
    <linearGradient id="linear-gradient" x1="0.5" y1="1" x2="0.5" gradientUnits="objectBoundingBox">
      <stop offset="0" stop-color="#7ac3ec"/>
      <stop offset="0.1" stop-color="#73bde8"/>
      <stop offset="0.239" stop-color="#61aedf"/>
      <stop offset="0.401" stop-color="#4496cf"/>
      <stop offset="0.579" stop-color="#1b74ba"/>
      <stop offset="0.6" stop-color="#1670b8"/>
      <stop offset="0.768" stop-color="#225baa"/>
      <stop offset="1" stop-color="#373a93"/>
    </linearGradient>
    <linearGradient id="linear-gradient-2" x1="0.97" y1="0.27" x2="0.232" y2="0.727" gradientUnits="objectBoundingBox">
      <stop offset="0" stop-color="#7ac3ec"/>
      <stop offset="0.163" stop-color="#62afe0"/>
      <stop offset="0.503" stop-color="#277ec1"/>
      <stop offset="0.6" stop-color="#1670b8"/>
      <stop offset="1" stop-color="#373a93"/>
    </linearGradient>
    <linearGradient id="linear-gradient-3" x1="0.21" y1="0.267" x2="0.913" y2="0.72" gradientUnits="objectBoundingBox">
      <stop offset="0" stop-color="#7ac3ec"/>
      <stop offset="0.101" stop-color="#71bbe7"/>
      <stop offset="0.261" stop-color="#5aa8db"/>
      <stop offset="0.461" stop-color="#3489c7"/>
      <stop offset="0.6" stop-color="#1670b8"/>
      <stop offset="1" stop-color="#373a93"/>
    </linearGradient>
  </defs>
  <g id="logo_icon" data-name="logo icon">
    <path id="Path_1649" data-name="Path 1649" d="M595.423,346.386a32.005,32.005,0,0,1-36.141-5.2q-1.18-1.1-2.226-2.286a31.78,31.78,0,0,1-6.45-11.359,23.218,23.218,0,0,1,7.987-3.3,23.185,23.185,0,0,0,5.413,9.49c.356.377.726.747,1.112,1.106a23.338,23.338,0,0,0,20.689,5.773,23.4,23.4,0,0,0-8.619-12.331,31.82,31.82,0,0,0,1.7-9.184,31.98,31.98,0,0,1,16.531,27.288Z" transform="translate(-531.423 -290.738)" fill="url(#linear-gradient)"/>
    <path id="Path_1650" data-name="Path 1650" d="M559.494,124.037A23.282,23.282,0,0,1,553.539,120c-.385-.359-.756-.729-1.112-1.106a23.371,23.371,0,0,0-.132-31.861,23.266,23.266,0,0,0-6.11,13.743,31.934,31.934,0,0,0-8.678,2.876,31.871,31.871,0,0,1,7.812-21.719l0,0q.364-.425.752-.84a32.075,32.075,0,0,1,6.226-5.2,31.963,31.963,0,0,1,4.83,3.708q1.156,1.076,2.178,2.233a31.988,31.988,0,0,1,.185,42.2Z" transform="translate(-519.844 -75.899)" fill="url(#linear-gradient-2)"/>
    <path id="Path_1651" data-name="Path 1651" d="M418.791,314.73a32.057,32.057,0,0,1-24.026,4.28,31.63,31.63,0,0,1-8.663-3.25,31.928,31.928,0,0,1,1.686-9.138l0,0a32.028,32.028,0,0,1,37.01-20.959,23.367,23.367,0,0,1-.868,8.679,23.494,23.494,0,0,0-10.659-.259,23.386,23.386,0,0,0-17.642,16.247,23.427,23.427,0,0,0,16.1-1.592q1.042,1.185,2.226,2.286A31.975,31.975,0,0,0,418.791,314.73Z" transform="translate(-386.102 -260.575)" fill="url(#linear-gradient-3)"/>
  </g>
  <path id="Path_1653" data-name="Path 1653" d="M22.95.1l5.712-13.3c.561-1.432,1.938-5.063,3.162-8.439.051,3.273.2,6.8.255,8.49L32.64.1H38.3l-2.04-34.726H31.62L22.848-12.937c-.663,1.637-1.479,3.529-2.142,5.268-.663-1.79-1.53-3.733-2.142-5.268L9.843-34.622H5.1L3.06.1H8.772l.51-13.4c.051-1.33.153-5.012.2-8.541,1.275,3.478,2.754,7.262,3.417,8.8L18.666.1ZM55.437-25.979c-6.936,0-12.291,4.859-12.291,13.962C43.146-4.55,46.308.462,54.162.462A22.951,22.951,0,0,0,63.75-1.89L62.22-5.522s-4.284,1.79-7.242,1.79c-4.029,0-5.3-2.608-5.661-5.779,8.976-.1,14.637-4.3,14.637-9.206C63.954-22.808,61.506-25.979,55.437-25.979ZM49.164-13.193c.1-4.194,1.326-8.8,5.814-8.8a3.031,3.031,0,0,1,3.162,3.273C58.14-16.313,55.641-13.449,49.164-13.193Zm31.977-12.53c-3.264,0-5.967,1.637-7.344,5.575a10.57,10.57,0,0,0-2.448-5.37l-4.59,1.841s2.5,2.762,2.5,10.894V.1h5.814V-13.909c0-3.631,2.652-6.137,5.1-6.137a4.706,4.706,0,0,1,2.5.563L84.3-25.161A10.4,10.4,0,0,0,81.141-25.723Zm6.222,20.3c0,3.324,1.836,5.728,5.661,5.728a14.441,14.441,0,0,0,5.355-.921l-.714-3.682a10.453,10.453,0,0,1-2.7.409c-1.173,0-1.785-.563-1.785-2.1V-37.026l-5.814,1.074ZM108.63-33.241a3.192,3.192,0,0,0-3.366-3.478,3.339,3.339,0,0,0-3.57,3.631,3.242,3.242,0,0,0,3.417,3.427A3.31,3.31,0,0,0,108.63-33.241ZM102.255-5.47c0,3.375,1.989,5.779,5.559,5.779a7.675,7.675,0,0,0,3.621-.716l-.612-3.682s-.816.1-1.326.1c-.969,0-1.428-.46-1.428-1.995V-25.365h-5.814ZM131.325.1h5.763V-16.978c0-5.37-2.193-8.8-7.446-8.8A9.471,9.471,0,0,0,120.564-20a10.317,10.317,0,0,0-2.5-5.523l-4.59,1.841s2.5,2.762,2.5,10.894V.1h5.814V-12.528c0-5.37,3.111-8.643,6.171-8.643,2.448,0,3.366,1.892,3.366,4.756Zm45.747-15.752V.1h6.069V-34.52h-6.069V-20.1H162.843V-34.52h-6.069V.1h6.069V-15.648Zm23.715-10.331c-6.936,0-12.291,4.859-12.291,13.962C188.5-4.55,191.658.462,199.512.462A22.952,22.952,0,0,0,209.1-1.89l-1.53-3.631s-4.284,1.79-7.242,1.79c-4.029,0-5.3-2.608-5.661-5.779,8.976-.1,14.637-4.3,14.637-9.206C209.3-22.808,206.856-25.979,200.787-25.979Zm-6.273,12.786c.1-4.194,1.326-8.8,5.814-8.8a3.031,3.031,0,0,1,3.162,3.273C203.49-16.313,200.991-13.449,194.514-13.193Zm40.137.972v-12.07a47.971,47.971,0,0,0-9.843-1.483c-7.242,0-12.189,5.728-12.189,13.5C212.619-4.6,215.628.411,222,.411c4.335,0,6.834-2.1,7.956-6.188a9.685,9.685,0,0,0,2.6,6.291L237.1-1.328S234.651-4.141,234.651-12.221Zm-5.814-1.534c0,5.012-2.5,10.075-5.865,10.075-3.723,0-4.08-4.347-4.08-9.1,0-5.165,1.479-8.9,6.579-8.9a14.386,14.386,0,0,1,3.366.563ZM241.23-5.419c0,3.324,1.836,5.728,5.661,5.728a14.441,14.441,0,0,0,5.355-.921l-.714-3.682a10.453,10.453,0,0,1-2.7.409c-1.173,0-1.785-.563-1.785-2.1V-37.026l-5.814,1.074Zm11.016-19.946v4.143h4.59v15.8c0,4.194,2.754,5.728,6.528,5.728a17.555,17.555,0,0,0,6.528-1.176L268.923-4.7a13.958,13.958,0,0,1-3.978.716c-1.173,0-2.3-.358-2.3-2.1V-21.223h5.559l.714-4.143H262.65v-7.058l-4.794,1.074-1.02,5.984Zm27.03,3.273V-36.975l-5.814,1.023V.1h5.814V-13.4c0-4.654,3.366-7.825,6.171-7.825,2.448,0,3.366,1.79,3.366,4.654V.1h5.814V-16.978c0-5.421-2.193-8.8-7.446-8.8A9.527,9.527,0,0,0,279.276-22.092Z" transform="translate(85 48.057)" fill="#fff"/>
</svg>
