<svg width="24" height="24" viewBox="0 0 24 24" fill="none" xmlns="http://www.w3.org/2000/svg">
<path d="M22 17.2C22 18.1493 21.7185 19.0774 21.191 19.8667C20.6636 20.6561 19.914 21.2713 19.0369 21.6346C18.1598 21.9979 17.1947 22.093 16.2636 21.9078C15.3325 21.7226 14.4772 21.2654 13.8059 20.5941C13.1346 19.9228 12.6774 19.0675 12.4922 18.1364C12.307 17.2053 12.4021 16.2402 12.7654 15.3631C13.1287 14.486 13.7439 13.7364 14.5333 13.2089C15.3226 12.6815 16.2506 12.4 17.2 12.4C18.473 12.4 19.6939 12.9057 20.5941 13.8059C21.4943 14.7061 22 15.927 22 17.2V17.2Z" stroke="white" stroke-width="1.5" stroke-linecap="round" stroke-linejoin="round"/>
<path d="M18.99 17.26H15.41" stroke="white" stroke-width="1.5" stroke-linecap="round" stroke-linejoin="round"/>
<path d="M17.2 15.51V19.1" stroke="white" stroke-width="1.5" stroke-linecap="round" stroke-linejoin="round"/>
<path d="M22 8.69C22.0012 10.5115 21.5511 12.3049 20.69 13.91C19.8134 13.0406 18.6354 12.5424 17.4009 12.519C16.1665 12.4955 14.9704 12.9487 14.0615 13.7843C13.1525 14.6199 12.6005 15.7736 12.5201 17.0057C12.4397 18.2378 12.8373 19.4534 13.63 20.4C13.3009 20.5545 12.9637 20.6913 12.62 20.81C12.2154 20.93 11.7846 20.93 11.38 20.81C8.48 19.82 2 15.69 2 8.69C1.9921 7.52062 2.35364 6.37861 3.03305 5.42682C3.71246 4.47503 4.67505 3.76207 5.78356 3.38961C6.89206 3.01716 8.08986 3.00422 9.20615 3.35266C10.3224 3.70109 11.3002 4.3931 12 5.33C12.6998 4.3931 13.6776 3.70109 14.7939 3.35266C15.9101 3.00422 17.108 3.01716 18.2165 3.38961C19.325 3.76207 20.2876 4.47503 20.967 5.42682C21.6464 6.37861 22.0079 7.52062 22 8.69Z" stroke="white" stroke-width="1.5" stroke-linecap="round" stroke-linejoin="round"/>
</svg>
