<svg xmlns="http://www.w3.org/2000/svg" width="345" height="177" viewBox="0 0 345 177">
  <g id="Group_9" data-name="Group 9" transform="translate(-490 -379)">
    <rect id="peugeot208gti_2_" data-name="peugeot208gti (2)" width="343" height="175" rx="22" transform="translate(491 380)" fill="#fff" stroke="#d2d2d2" stroke-width="2"/>
    <text id="Select_more_pictures" data-name="Select more pictures" transform="translate(551 506)" fill="#b5b5b5" font-size="25" font-family="SegoeUI, Segoe UI"><tspan x="0" y="0">Select more pictures</tspan></text>
    <path id="Icon_awesome-car" data-name="Icon awesome-car" d="M67.707,19.667H59.6l-2.253-5.633A15.09,15.09,0,0,0,43.265,4.5h-17.2a15.094,15.094,0,0,0-14.082,9.533L9.732,19.667H1.626A1.624,1.624,0,0,0,.05,21.686l.813,3.25a1.624,1.624,0,0,0,1.576,1.231H5.156a8.606,8.606,0,0,0-2.99,6.5v6.5a8.6,8.6,0,0,0,2.167,5.678v7.322A4.334,4.334,0,0,0,8.666,56.5H13a4.334,4.334,0,0,0,4.333-4.333V47.833H52v4.333A4.334,4.334,0,0,0,56.333,56.5h4.333A4.334,4.334,0,0,0,65,52.167V44.845a8.591,8.591,0,0,0,2.167-5.678v-6.5a8.61,8.61,0,0,0-2.989-6.5H66.9a1.624,1.624,0,0,0,1.576-1.231l.813-3.25a1.626,1.626,0,0,0-1.578-2.019ZM20.032,17.252a6.5,6.5,0,0,1,6.036-4.086h17.2A6.5,6.5,0,0,1,49.3,17.252L52,24H17.333l2.7-6.748ZM13,39.14a4.088,4.088,0,0,1-4.333-4.32A4.088,4.088,0,0,1,13,30.5c2.6,0,6.5,3.888,6.5,6.48S15.6,39.14,13,39.14Zm43.333,0c-2.6,0-6.5.432-6.5-2.16s3.9-6.48,6.5-6.48a4.088,4.088,0,0,1,4.333,4.32,4.088,4.088,0,0,1-4.333,4.32Z" transform="translate(628.333 411)" fill="#efefef"/>
    <path id="Icon_awesome-car-2" data-name="Icon awesome-car" d="M67.707,19.667H59.6l-2.253-5.633A15.09,15.09,0,0,0,43.265,4.5h-17.2a15.094,15.094,0,0,0-14.082,9.533L9.732,19.667H1.626A1.624,1.624,0,0,0,.05,21.686l.813,3.25a1.624,1.624,0,0,0,1.576,1.231H5.156a8.606,8.606,0,0,0-2.99,6.5v6.5a8.6,8.6,0,0,0,2.167,5.678v7.322A4.334,4.334,0,0,0,8.666,56.5H13a4.334,4.334,0,0,0,4.333-4.333V47.833H52v4.333A4.334,4.334,0,0,0,56.333,56.5h4.333A4.334,4.334,0,0,0,65,52.167V44.845a8.591,8.591,0,0,0,2.167-5.678v-6.5a8.61,8.61,0,0,0-2.989-6.5H66.9a1.624,1.624,0,0,0,1.576-1.231l.813-3.25a1.626,1.626,0,0,0-1.578-2.019ZM20.032,17.252a6.5,6.5,0,0,1,6.036-4.086h17.2A6.5,6.5,0,0,1,49.3,17.252L52,24H17.333l2.7-6.748ZM13,39.14a4.088,4.088,0,0,1-4.333-4.32A4.088,4.088,0,0,1,13,30.5c2.6,0,6.5,3.888,6.5,6.48S15.6,39.14,13,39.14Zm43.333,0c-2.6,0-6.5.432-6.5-2.16s3.9-6.48,6.5-6.48a4.088,4.088,0,0,1,4.333,4.32,4.088,4.088,0,0,1-4.333,4.32Z" transform="translate(635.333 416)" fill="#d6d5d3"/>
    <path id="Icon_awesome-car-3" data-name="Icon awesome-car" d="M67.707,19.667H59.6l-2.253-5.633A15.09,15.09,0,0,0,43.265,4.5h-17.2a15.094,15.094,0,0,0-14.082,9.533L9.732,19.667H1.626A1.624,1.624,0,0,0,.05,21.686l.813,3.25a1.624,1.624,0,0,0,1.576,1.231H5.156a8.606,8.606,0,0,0-2.99,6.5v6.5a8.6,8.6,0,0,0,2.167,5.678v7.322A4.334,4.334,0,0,0,8.666,56.5H13a4.334,4.334,0,0,0,4.333-4.333V47.833H52v4.333A4.334,4.334,0,0,0,56.333,56.5h4.333A4.334,4.334,0,0,0,65,52.167V44.845a8.591,8.591,0,0,0,2.167-5.678v-6.5a8.61,8.61,0,0,0-2.989-6.5H66.9a1.624,1.624,0,0,0,1.576-1.231l.813-3.25a1.626,1.626,0,0,0-1.578-2.019ZM20.032,17.252a6.5,6.5,0,0,1,6.036-4.086h17.2A6.5,6.5,0,0,1,49.3,17.252L52,24H17.333l2.7-6.748ZM13,39.14a4.088,4.088,0,0,1-4.333-4.32A4.088,4.088,0,0,1,13,30.5c2.6,0,6.5,3.888,6.5,6.48S15.6,39.14,13,39.14Zm43.333,0c-2.6,0-6.5.432-6.5-2.16s3.9-6.48,6.5-6.48a4.088,4.088,0,0,1,4.333,4.32,4.088,4.088,0,0,1-4.333,4.32Z" transform="translate(641.333 422.5)" fill="#fa0"/>
  </g>
</svg>
